<svg id="Layer_4" data-name="Layer 4" xmlns="http://www.w3.org/2000/svg" viewBox="0 0 97.82 88.8"><defs><style>.cls-1{fill:#d8d8d8;stroke:#231f20;stroke-linecap:round;stroke-linejoin:round;stroke-width:0.5px;}</style></defs><title>atoms-neurons</title><polygon class="cls-1" points="38.51 56.22 27.95 56.22 32.78 52.61 43.27 52.61 38.51 56.22"/><polygon class="cls-1" points="27.88 66.78 27.95 56.22 38.51 56.22 38.44 66.78 27.88 66.78"/><polygon class="cls-1" points="43.27 52.61 43.4 62.92 38.44 66.78 38.51 56.22 43.27 52.61"/><polygon class="cls-1" points="52.61 56.22 42.12 56.22 46.95 52.61 57.44 52.61 52.61 56.22"/><polygon class="cls-1" points="42.05 66.78 42.12 56.22 52.61 56.22 52.61 66.78 42.05 66.78"/><polygon class="cls-1" points="57.44 52.61 57.57 62.92 52.61 66.78 52.61 56.22 57.44 52.61"/><polygon class="cls-1" points="65.75 56.22 55.25 56.22 60.02 52.61 70.52 52.61 65.75 56.22"/><polygon class="cls-1" points="55.13 66.78 55.25 56.22 65.75 56.22 65.69 66.78 55.13 66.78"/><polygon class="cls-1" points="70.52 52.61 70.65 62.92 65.69 66.78 65.75 56.22 70.52 52.61"/><polygon class="cls-1" points="79.15 56.22 68.65 56.22 73.48 52.61 83.98 52.61 79.15 56.22"/><polygon class="cls-1" points="68.59 66.78 68.65 56.22 79.15 56.22 79.15 66.78 68.59 66.78"/><polygon class="cls-1" points="83.98 52.61 84.11 62.92 79.15 66.78 79.15 56.22 83.98 52.61"/><polygon class="cls-1" points="92.61 56.22 82.11 56.22 86.88 52.61 97.44 52.61 92.61 56.22"/><polygon class="cls-1" points="81.98 66.78 82.11 56.22 92.61 56.22 92.61 66.78 81.98 66.78"/><polygon class="cls-1" points="97.44 52.61 97.57 62.92 92.61 66.78 92.61 56.22 97.44 52.61"/><polygon class="cls-1" points="31.55 61.7 21.05 61.7 25.88 58.02 36.38 58.02 31.55 61.7"/><polygon class="cls-1" points="20.99 72.19 21.05 61.7 31.55 61.7 31.55 72.26 20.99 72.19"/><polygon class="cls-1" points="36.38 58.02 36.51 68.39 31.55 72.26 31.55 61.7 36.38 58.02"/><polygon class="cls-1" points="45.72 61.7 35.22 61.7 40.05 58.02 50.55 58.02 45.72 61.7"/><polygon class="cls-1" points="35.16 72.19 35.22 61.7 45.72 61.7 45.72 72.26 35.16 72.19"/><polygon class="cls-1" points="50.55 58.02 50.68 68.39 45.72 72.26 45.72 61.7 50.55 58.02"/><polygon class="cls-1" points="58.8 61.7 48.3 61.7 53.13 58.02 63.63 58.02 58.8 61.7"/><polygon class="cls-1" points="48.23 72.19 48.3 61.7 58.8 61.7 58.8 72.26 48.23 72.19"/><polygon class="cls-1" points="63.63 58.02 63.76 68.39 58.8 72.26 58.8 61.7 63.63 58.02"/><polygon class="cls-1" points="72.26 61.7 61.76 61.7 66.59 58.02 77.09 58.02 72.26 61.7"/><polygon class="cls-1" points="61.63 72.19 61.76 61.7 72.26 61.7 72.26 72.26 61.63 72.19"/><polygon class="cls-1" points="77.09 58.02 77.22 68.39 72.26 72.26 72.26 61.7 77.09 58.02"/><polygon class="cls-1" points="85.72 61.7 75.22 61.7 79.99 58.02 90.49 58.02 85.72 61.7"/><polygon class="cls-1" points="75.09 72.19 75.22 61.7 85.72 61.7 85.72 72.26 75.09 72.19"/><polygon class="cls-1" points="90.49 58.02 90.61 68.39 85.72 72.26 85.72 61.7 90.49 58.02"/><polygon class="cls-1" points="24.66 67.17 14.16 67.17 18.93 63.5 29.49 63.5 24.66 67.17"/><polygon class="cls-1" points="14.03 77.67 14.16 67.17 24.66 67.17 24.66 77.67 14.03 77.67"/><polygon class="cls-1" points="29.49 63.5 29.62 73.8 24.66 77.67 24.66 67.17 29.49 63.5"/><polygon class="cls-1" points="38.83 67.17 28.33 67.17 33.16 63.5 43.66 63.5 38.83 67.17"/><polygon class="cls-1" points="28.2 77.67 28.33 67.17 38.83 67.17 38.83 77.67 28.2 77.67"/><polygon class="cls-1" points="43.66 63.5 43.79 73.8 38.83 77.67 38.83 67.17 43.66 63.5"/><polygon class="cls-1" points="51.91 67.17 41.41 67.17 46.24 63.5 56.74 63.5 51.91 67.17"/><polygon class="cls-1" points="41.34 77.67 41.41 67.17 51.91 67.17 51.91 77.67 41.34 77.67"/><polygon class="cls-1" points="56.74 63.5 56.87 73.8 51.91 77.67 51.91 67.17 56.74 63.5"/><polygon class="cls-1" points="65.37 67.17 54.87 67.17 59.63 63.5 70.13 63.5 65.37 67.17"/><polygon class="cls-1" points="54.74 77.67 54.87 67.17 65.37 67.17 65.37 77.67 54.74 77.67"/><polygon class="cls-1" points="70.13 63.5 70.26 73.8 65.37 77.67 65.37 67.17 70.13 63.5"/><polygon class="cls-1" points="78.83 67.17 68.33 67.17 73.09 63.5 83.59 63.5 78.83 67.17"/><polygon class="cls-1" points="68.2 77.67 68.33 67.17 78.83 67.17 78.83 77.67 68.2 77.67"/><polygon class="cls-1" points="83.59 63.5 83.72 73.8 78.83 77.67 78.83 67.17 83.59 63.5"/><polygon class="cls-1" points="17.77 72.58 7.27 72.58 12.04 68.97 22.54 68.97 17.77 72.58"/><polygon class="cls-1" points="7.14 83.08 7.27 72.58 17.77 72.58 17.77 83.14 7.14 83.08"/><polygon class="cls-1" points="22.54 68.97 22.66 79.28 17.77 83.14 17.77 72.58 22.54 68.97"/><polygon class="cls-1" points="31.94 72.58 21.44 72.58 26.21 68.97 36.7 68.97 31.94 72.58"/><polygon class="cls-1" points="21.31 83.08 21.44 72.58 31.94 72.58 31.94 83.14 21.31 83.08"/><polygon class="cls-1" points="36.7 68.97 36.83 79.28 31.94 83.14 31.94 72.58 36.7 68.97"/><polygon class="cls-1" points="45.01 72.58 34.52 72.58 39.28 68.97 49.84 68.97 45.01 72.58"/><polygon class="cls-1" points="34.39 83.08 34.52 72.58 45.01 72.58 45.01 83.14 34.39 83.08"/><polygon class="cls-1" points="49.84 68.97 49.97 79.28 45.01 83.14 45.01 72.58 49.84 68.97"/><polygon class="cls-1" points="58.48 72.58 47.98 72.58 52.74 68.97 63.24 68.97 58.48 72.58"/><polygon class="cls-1" points="47.85 83.08 47.98 72.58 58.48 72.58 58.48 83.14 47.85 83.08"/><polygon class="cls-1" points="63.24 68.97 63.37 79.28 58.48 83.14 58.48 72.58 63.24 68.97"/><polygon class="cls-1" points="71.94 72.58 61.37 72.58 66.2 68.97 76.7 68.97 71.94 72.58"/><polygon class="cls-1" points="61.31 83.08 61.37 72.58 71.94 72.58 71.87 83.14 61.31 83.08"/><polygon class="cls-1" points="76.7 68.97 76.83 79.28 71.87 83.14 71.94 72.58 76.7 68.97"/><polygon class="cls-1" points="10.88 78.06 0.38 78.06 5.14 74.38 15.64 74.38 10.88 78.06"/><polygon class="cls-1" points="0.25 88.55 0.38 78.06 10.88 78.06 10.88 88.55 0.25 88.55"/><polygon class="cls-1" points="15.64 74.38 15.77 84.75 10.88 88.55 10.88 78.06 15.64 74.38"/><polygon class="cls-1" points="25.05 78.06 14.55 78.06 19.32 74.38 29.81 74.38 25.05 78.06"/><polygon class="cls-1" points="14.42 88.55 14.55 78.06 25.05 78.06 25.05 88.55 14.42 88.55"/><polygon class="cls-1" points="29.81 74.38 29.94 84.75 25.05 88.55 25.05 78.06 29.81 74.38"/><polygon class="cls-1" points="38.12 78.06 27.62 78.06 32.39 74.38 42.89 74.38 38.12 78.06"/><polygon class="cls-1" points="27.5 88.55 27.62 78.06 38.12 78.06 38.12 88.55 27.5 88.55"/><polygon class="cls-1" points="42.89 74.38 43.02 84.75 38.12 88.55 38.12 78.06 42.89 74.38"/><polygon class="cls-1" points="51.58 78.06 41.02 78.06 45.85 74.38 56.35 74.38 51.58 78.06"/><polygon class="cls-1" points="40.96 88.55 41.02 78.06 51.58 78.06 51.52 88.55 40.96 88.55"/><polygon class="cls-1" points="56.35 74.38 56.48 84.75 51.52 88.55 51.58 78.06 56.35 74.38"/><polygon class="cls-1" points="64.98 78.06 54.48 78.06 59.31 74.38 69.81 74.38 64.98 78.06"/><polygon class="cls-1" points="54.42 88.55 54.48 78.06 64.98 78.06 64.98 88.55 54.42 88.55"/><polygon class="cls-1" points="69.81 74.38 69.94 84.75 64.98 88.55 64.98 78.06 69.81 74.38"/><polygon class="cls-1" points="38.51 43.15 27.95 43.15 32.78 39.54 43.27 39.54 38.51 43.15"/><polygon class="cls-1" points="27.88 53.71 27.95 43.15 38.51 43.15 38.44 53.71 27.88 53.71"/><polygon class="cls-1" points="43.27 39.54 43.4 49.84 38.44 53.71 38.51 43.15 43.27 39.54"/><polygon class="cls-1" points="52.61 43.15 42.12 43.15 46.95 39.54 57.44 39.54 52.61 43.15"/><polygon class="cls-1" points="42.05 53.71 42.12 43.15 52.61 43.15 52.61 53.71 42.05 53.71"/><polygon class="cls-1" points="57.44 39.54 57.57 49.84 52.61 53.71 52.61 43.15 57.44 39.54"/><polygon class="cls-1" points="65.75 43.15 55.25 43.15 60.02 39.54 70.52 39.54 65.75 43.15"/><polygon class="cls-1" points="55.13 53.71 55.25 43.15 65.75 43.15 65.69 53.71 55.13 53.71"/><polygon class="cls-1" points="70.52 39.54 70.65 49.84 65.69 53.71 65.75 43.15 70.52 39.54"/><polygon class="cls-1" points="79.15 43.15 68.65 43.15 73.48 39.54 83.98 39.54 79.15 43.15"/><polygon class="cls-1" points="68.59 53.71 68.65 43.15 79.15 43.15 79.15 53.71 68.59 53.71"/><polygon class="cls-1" points="83.98 39.54 84.11 49.84 79.15 53.71 79.15 43.15 83.98 39.54"/><polygon class="cls-1" points="92.61 43.15 82.11 43.15 86.88 39.54 97.44 39.54 92.61 43.15"/><polygon class="cls-1" points="81.98 53.71 82.11 43.15 92.61 43.15 92.61 53.71 81.98 53.71"/><polygon class="cls-1" points="97.44 39.54 97.57 49.84 92.61 53.71 92.61 43.15 97.44 39.54"/><polygon class="cls-1" points="31.55 48.62 21.05 48.62 25.88 44.95 36.38 44.95 31.55 48.62"/><polygon class="cls-1" points="20.99 59.12 21.05 48.62 31.55 48.62 31.55 59.12 20.99 59.12"/><polygon class="cls-1" points="36.38 44.95 36.51 55.32 31.55 59.12 31.55 48.62 36.38 44.95"/><polygon class="cls-1" points="45.72 48.62 35.22 48.62 40.05 44.95 50.55 44.95 45.72 48.62"/><polygon class="cls-1" points="35.16 59.12 35.22 48.62 45.72 48.62 45.72 59.12 35.16 59.12"/><polygon class="cls-1" points="50.55 44.95 50.68 55.32 45.72 59.12 45.72 48.62 50.55 44.95"/><polygon class="cls-1" points="58.8 48.62 48.3 48.62 53.13 44.95 63.63 44.95 58.8 48.62"/><polygon class="cls-1" points="48.23 59.12 48.3 48.62 58.8 48.62 58.8 59.12 48.23 59.12"/><polygon class="cls-1" points="63.63 44.95 63.76 55.32 58.8 59.12 58.8 48.62 63.63 44.95"/><polygon class="cls-1" points="72.26 48.62 61.76 48.62 66.59 44.95 77.09 44.95 72.26 48.62"/><polygon class="cls-1" points="61.63 59.12 61.76 48.62 72.26 48.62 72.26 59.12 61.63 59.12"/><polygon class="cls-1" points="77.09 44.95 77.22 55.32 72.26 59.12 72.26 48.62 77.09 44.95"/><polygon class="cls-1" points="85.72 48.62 75.22 48.62 79.99 44.95 90.49 44.95 85.72 48.62"/><polygon class="cls-1" points="75.09 59.12 75.22 48.62 85.72 48.62 85.72 59.12 75.09 59.12"/><polygon class="cls-1" points="90.49 44.95 90.61 55.32 85.72 59.12 85.72 48.62 90.49 44.95"/><polygon class="cls-1" points="24.66 54.03 14.16 54.03 18.93 50.42 29.49 50.42 24.66 54.03"/><polygon class="cls-1" points="14.03 64.59 14.16 54.03 24.66 54.03 24.66 64.59 14.03 64.59"/><polygon class="cls-1" points="29.49 50.42 29.62 60.73 24.66 64.59 24.66 54.03 29.49 50.42"/><polygon class="cls-1" points="38.83 54.03 28.33 54.03 33.16 50.42 43.66 50.42 38.83 54.03"/><polygon class="cls-1" points="28.2 64.59 28.33 54.03 38.83 54.03 38.83 64.59 28.2 64.59"/><polygon class="cls-1" points="43.66 50.42 43.79 60.73 38.83 64.59 38.83 54.03 43.66 50.42"/><polygon class="cls-1" points="51.91 54.03 41.41 54.03 46.24 50.42 56.74 50.42 51.91 54.03"/><polygon class="cls-1" points="41.34 64.59 41.41 54.03 51.91 54.03 51.91 64.59 41.34 64.59"/><polygon class="cls-1" points="56.74 50.42 56.87 60.73 51.91 64.59 51.91 54.03 56.74 50.42"/><polygon class="cls-1" points="65.37 54.03 54.87 54.03 59.63 50.42 70.13 50.42 65.37 54.03"/><polygon class="cls-1" points="54.74 64.59 54.87 54.03 65.37 54.03 65.37 64.59 54.74 64.59"/><polygon class="cls-1" points="70.13 50.42 70.26 60.73 65.37 64.59 65.37 54.03 70.13 50.42"/><polygon class="cls-1" points="78.83 54.03 68.33 54.03 73.09 50.42 83.59 50.42 78.83 54.03"/><polygon class="cls-1" points="68.2 64.59 68.33 54.03 78.83 54.03 78.83 64.59 68.2 64.59"/><polygon class="cls-1" points="83.59 50.42 83.72 60.73 78.83 64.59 78.83 54.03 83.59 50.42"/><polygon class="cls-1" points="17.77 59.51 7.27 59.51 12.04 55.9 22.54 55.9 17.77 59.51"/><polygon class="cls-1" points="7.14 70 7.27 59.51 17.77 59.51 17.77 70.07 7.14 70"/><polygon class="cls-1" points="22.54 55.9 22.66 66.2 17.77 70.07 17.77 59.51 22.54 55.9"/><polygon class="cls-1" points="31.94 59.51 21.44 59.51 26.21 55.9 36.7 55.9 31.94 59.51"/><polygon class="cls-1" points="21.31 70 21.44 59.51 31.94 59.51 31.94 70.07 21.31 70"/><polygon class="cls-1" points="36.7 55.9 36.83 66.2 31.94 70.07 31.94 59.51 36.7 55.9"/><polygon class="cls-1" points="45.01 59.51 34.52 59.51 39.28 55.9 49.84 55.9 45.01 59.51"/><polygon class="cls-1" points="34.39 70 34.52 59.51 45.01 59.51 45.01 70.07 34.39 70"/><polygon class="cls-1" points="49.84 55.9 49.97 66.2 45.01 70.07 45.01 59.51 49.84 55.9"/><polygon class="cls-1" points="58.48 59.51 47.98 59.51 52.74 55.9 63.24 55.9 58.48 59.51"/><polygon class="cls-1" points="47.85 70 47.98 59.51 58.48 59.51 58.48 70.07 47.85 70"/><polygon class="cls-1" points="63.24 55.9 63.37 66.2 58.48 70.07 58.48 59.51 63.24 55.9"/><polygon class="cls-1" points="71.94 59.51 61.37 59.51 66.2 55.9 76.7 55.9 71.94 59.51"/><polygon class="cls-1" points="61.31 70 61.37 59.51 71.94 59.51 71.87 70.07 61.31 70"/><polygon class="cls-1" points="76.7 55.9 76.83 66.2 71.87 70.07 71.94 59.51 76.7 55.9"/><polygon class="cls-1" points="10.88 64.98 0.38 64.98 5.14 61.31 15.64 61.31 10.88 64.98"/><polygon class="cls-1" points="0.25 75.48 0.38 64.98 10.88 64.98 10.88 75.48 0.25 75.48"/><polygon class="cls-1" points="15.64 61.31 15.77 71.68 10.88 75.48 10.88 64.98 15.64 61.31"/><polygon class="cls-1" points="25.05 64.98 14.55 64.98 19.32 61.31 29.81 61.31 25.05 64.98"/><polygon class="cls-1" points="14.42 75.48 14.55 64.98 25.05 64.98 25.05 75.48 14.42 75.48"/><polygon class="cls-1" points="29.81 61.31 29.94 71.68 25.05 75.48 25.05 64.98 29.81 61.31"/><polygon class="cls-1" points="38.12 64.98 27.62 64.98 32.39 61.31 42.89 61.31 38.12 64.98"/><polygon class="cls-1" points="27.5 75.48 27.62 64.98 38.12 64.98 38.12 75.48 27.5 75.48"/><polygon class="cls-1" points="42.89 61.31 43.02 71.68 38.12 75.48 38.12 64.98 42.89 61.31"/><polygon class="cls-1" points="51.58 64.98 41.02 64.98 45.85 61.31 56.35 61.31 51.58 64.98"/><polygon class="cls-1" points="40.96 75.48 41.02 64.98 51.58 64.98 51.52 75.48 40.96 75.48"/><polygon class="cls-1" points="56.35 61.31 56.48 71.68 51.52 75.48 51.58 64.98 56.35 61.31"/><polygon class="cls-1" points="64.98 64.98 54.48 64.98 59.31 61.31 69.81 61.31 64.98 64.98"/><polygon class="cls-1" points="54.42 75.48 54.48 64.98 64.98 64.98 64.98 75.48 54.42 75.48"/><polygon class="cls-1" points="69.81 61.31 69.94 71.68 64.98 75.48 64.98 64.98 69.81 61.31"/><polygon class="cls-1" points="38.51 30.07 27.95 30.07 32.78 26.46 43.27 26.46 38.51 30.07"/><polygon class="cls-1" points="27.88 40.57 27.95 30.07 38.51 30.07 38.44 40.63 27.88 40.57"/><polygon class="cls-1" points="43.27 26.46 43.4 36.77 38.44 40.63 38.51 30.07 43.27 26.46"/><polygon class="cls-1" points="52.61 30.07 42.12 30.07 46.95 26.46 57.44 26.46 52.61 30.07"/><polygon class="cls-1" points="42.05 40.57 42.12 30.07 52.61 30.07 52.61 40.63 42.05 40.57"/><polygon class="cls-1" points="57.44 26.46 57.57 36.77 52.61 40.63 52.61 30.07 57.44 26.46"/><polygon class="cls-1" points="65.75 30.07 55.25 30.07 60.02 26.46 70.52 26.46 65.75 30.07"/><polygon class="cls-1" points="55.13 40.57 55.25 30.07 65.75 30.07 65.69 40.63 55.13 40.57"/><polygon class="cls-1" points="70.52 26.46 70.65 36.77 65.69 40.63 65.75 30.07 70.52 26.46"/><polygon class="cls-1" points="79.15 30.07 68.65 30.07 73.48 26.46 83.98 26.46 79.15 30.07"/><polygon class="cls-1" points="68.59 40.57 68.65 30.07 79.15 30.07 79.15 40.63 68.59 40.57"/><polygon class="cls-1" points="83.98 26.46 84.11 36.77 79.15 40.63 79.15 30.07 83.98 26.46"/><polygon class="cls-1" points="92.61 30.07 82.11 30.07 86.88 26.46 97.44 26.46 92.61 30.07"/><polygon class="cls-1" points="81.98 40.57 82.11 30.07 92.61 30.07 92.61 40.63 81.98 40.57"/><polygon class="cls-1" points="97.44 26.46 97.57 36.77 92.61 40.63 92.61 30.07 97.44 26.46"/><polygon class="cls-1" points="31.55 35.55 21.05 35.55 25.88 31.87 36.38 31.87 31.55 35.55"/><polygon class="cls-1" points="20.99 46.04 21.05 35.55 31.55 35.55 31.55 46.04 20.99 46.04"/><polygon class="cls-1" points="36.38 31.87 36.51 42.24 31.55 46.04 31.55 35.55 36.38 31.87"/><polygon class="cls-1" points="45.72 35.55 35.22 35.55 40.05 31.87 50.55 31.87 45.72 35.55"/><polygon class="cls-1" points="35.16 46.04 35.22 35.55 45.72 35.55 45.72 46.04 35.16 46.04"/><polygon class="cls-1" points="50.55 31.87 50.68 42.24 45.72 46.04 45.72 35.55 50.55 31.87"/><polygon class="cls-1" points="58.8 35.55 48.3 35.55 53.13 31.87 63.63 31.87 58.8 35.55"/><polygon class="cls-1" points="48.23 46.04 48.3 35.55 58.8 35.55 58.8 46.04 48.23 46.04"/><polygon class="cls-1" points="63.63 31.87 63.76 42.24 58.8 46.04 58.8 35.55 63.63 31.87"/><polygon class="cls-1" points="72.26 35.55 61.76 35.55 66.59 31.87 77.09 31.87 72.26 35.55"/><polygon class="cls-1" points="61.63 46.04 61.76 35.55 72.26 35.55 72.26 46.04 61.63 46.04"/><polygon class="cls-1" points="77.09 31.87 77.22 42.24 72.26 46.04 72.26 35.55 77.09 31.87"/><polygon class="cls-1" points="85.72 35.55 75.22 35.55 79.99 31.87 90.49 31.87 85.72 35.55"/><polygon class="cls-1" points="75.09 46.04 75.22 35.55 85.72 35.55 85.72 46.04 75.09 46.04"/><polygon class="cls-1" points="90.49 31.87 90.61 42.24 85.72 46.04 85.72 35.55 90.49 31.87"/><polygon class="cls-1" points="24.66 40.96 14.16 40.96 18.93 37.35 29.49 37.35 24.66 40.96"/><polygon class="cls-1" points="14.03 51.52 14.16 40.96 24.66 40.96 24.66 51.52 14.03 51.52"/><polygon class="cls-1" points="29.49 37.35 29.62 47.65 24.66 51.52 24.66 40.96 29.49 37.35"/><polygon class="cls-1" points="38.83 40.96 28.33 40.96 33.16 37.35 43.66 37.35 38.83 40.96"/><polygon class="cls-1" points="28.2 51.52 28.33 40.96 38.83 40.96 38.83 51.52 28.2 51.52"/><polygon class="cls-1" points="43.66 37.35 43.79 47.65 38.83 51.52 38.83 40.96 43.66 37.35"/><polygon class="cls-1" points="51.91 40.96 41.41 40.96 46.24 37.35 56.74 37.35 51.91 40.96"/><polygon class="cls-1" points="41.34 51.52 41.41 40.96 51.91 40.96 51.91 51.52 41.34 51.52"/><polygon class="cls-1" points="56.74 37.35 56.87 47.65 51.91 51.52 51.91 40.96 56.74 37.35"/><polygon class="cls-1" points="65.37 40.96 54.87 40.96 59.63 37.35 70.13 37.35 65.37 40.96"/><polygon class="cls-1" points="54.74 51.52 54.87 40.96 65.37 40.96 65.37 51.52 54.74 51.52"/><polygon class="cls-1" points="70.13 37.35 70.26 47.65 65.37 51.52 65.37 40.96 70.13 37.35"/><polygon class="cls-1" points="78.83 40.96 68.33 40.96 73.09 37.35 83.59 37.35 78.83 40.96"/><polygon class="cls-1" points="68.2 51.52 68.33 40.96 78.83 40.96 78.83 51.52 68.2 51.52"/><polygon class="cls-1" points="83.59 37.35 83.72 47.65 78.83 51.52 78.83 40.96 83.59 37.35"/><polygon class="cls-1" points="17.77 46.43 7.27 46.43 12.04 42.76 22.54 42.76 17.77 46.43"/><polygon class="cls-1" points="7.14 56.93 7.27 46.43 17.77 46.43 17.77 56.99 7.14 56.93"/><polygon class="cls-1" points="22.54 42.76 22.66 53.13 17.77 56.99 17.77 46.43 22.54 42.76"/><polygon class="cls-1" points="31.94 46.43 21.44 46.43 26.21 42.76 36.7 42.76 31.94 46.43"/><polygon class="cls-1" points="21.31 56.93 21.44 46.43 31.94 46.43 31.94 56.99 21.31 56.93"/><polygon class="cls-1" points="36.7 42.76 36.83 53.13 31.94 56.99 31.94 46.43 36.7 42.76"/><polygon class="cls-1" points="45.01 46.43 34.52 46.43 39.28 42.76 49.84 42.76 45.01 46.43"/><polygon class="cls-1" points="34.39 56.93 34.52 46.43 45.01 46.43 45.01 56.99 34.39 56.93"/><polygon class="cls-1" points="49.84 42.76 49.97 53.13 45.01 56.99 45.01 46.43 49.84 42.76"/><polygon class="cls-1" points="58.48 46.43 47.98 46.43 52.74 42.76 63.24 42.76 58.48 46.43"/><polygon class="cls-1" points="47.85 56.93 47.98 46.43 58.48 46.43 58.48 56.99 47.85 56.93"/><polygon class="cls-1" points="63.24 42.76 63.37 53.13 58.48 56.99 58.48 46.43 63.24 42.76"/><polygon class="cls-1" points="71.94 46.43 61.37 46.43 66.2 42.76 76.7 42.76 71.94 46.43"/><polygon class="cls-1" points="61.31 56.93 61.37 46.43 71.94 46.43 71.87 56.99 61.31 56.93"/><polygon class="cls-1" points="76.7 42.76 76.83 53.13 71.87 56.99 71.94 46.43 76.7 42.76"/><polygon class="cls-1" points="10.88 51.91 0.38 51.91 5.14 48.23 15.64 48.23 10.88 51.91"/><polygon class="cls-1" points="0.25 62.4 0.38 51.91 10.88 51.91 10.88 62.4 0.25 62.4"/><polygon class="cls-1" points="15.64 48.23 15.77 58.6 10.88 62.4 10.88 51.91 15.64 48.23"/><polygon class="cls-1" points="25.05 51.91 14.55 51.91 19.32 48.23 29.81 48.23 25.05 51.91"/><polygon class="cls-1" points="14.42 62.4 14.55 51.91 25.05 51.91 25.05 62.4 14.42 62.4"/><polygon class="cls-1" points="29.81 48.23 29.94 58.6 25.05 62.4 25.05 51.91 29.81 48.23"/><polygon class="cls-1" points="38.12 51.91 27.62 51.91 32.39 48.23 42.89 48.23 38.12 51.91"/><polygon class="cls-1" points="27.5 62.4 27.62 51.91 38.12 51.91 38.12 62.4 27.5 62.4"/><polygon class="cls-1" points="42.89 48.23 43.02 58.6 38.12 62.4 38.12 51.91 42.89 48.23"/><polygon class="cls-1" points="51.58 51.91 41.02 51.91 45.85 48.23 56.35 48.23 51.58 51.91"/><polygon class="cls-1" points="40.96 62.4 41.02 51.91 51.58 51.91 51.52 62.4 40.96 62.4"/><polygon class="cls-1" points="56.35 48.23 56.48 58.6 51.52 62.4 51.58 51.91 56.35 48.23"/><polygon class="cls-1" points="64.98 51.91 54.48 51.91 59.31 48.23 69.81 48.23 64.98 51.91"/><polygon class="cls-1" points="54.42 62.4 54.48 51.91 64.98 51.91 64.98 62.4 54.42 62.4"/><polygon class="cls-1" points="69.81 48.23 69.94 58.6 64.98 62.4 64.98 51.91 69.81 48.23"/><polygon class="cls-1" points="38.51 17 27.95 17 32.78 13.32 43.27 13.32 38.51 17"/><polygon class="cls-1" points="27.88 27.5 27.95 17 38.51 17 38.44 27.56 27.88 27.5"/><polygon class="cls-1" points="43.27 13.32 43.4 23.7 38.44 27.56 38.51 17 43.27 13.32"/><polygon class="cls-1" points="52.61 17 42.12 17 46.95 13.32 57.44 13.32 52.61 17"/><polygon class="cls-1" points="42.05 27.5 42.12 17 52.61 17 52.61 27.56 42.05 27.5"/><polygon class="cls-1" points="57.44 13.32 57.57 23.7 52.61 27.56 52.61 17 57.44 13.32"/><polygon class="cls-1" points="65.75 17 55.25 17 60.02 13.32 70.52 13.32 65.75 17"/><polygon class="cls-1" points="55.13 27.5 55.25 17 65.75 17 65.69 27.56 55.13 27.5"/><polygon class="cls-1" points="70.52 13.32 70.65 23.7 65.69 27.56 65.75 17 70.52 13.32"/><polygon class="cls-1" points="79.15 17 68.65 17 73.48 13.32 83.98 13.32 79.15 17"/><polygon class="cls-1" points="68.59 27.5 68.65 17 79.15 17 79.15 27.56 68.59 27.5"/><polygon class="cls-1" points="83.98 13.32 84.11 23.7 79.15 27.56 79.15 17 83.98 13.32"/><polygon class="cls-1" points="92.61 17 82.11 17 86.88 13.32 97.44 13.32 92.61 17"/><polygon class="cls-1" points="81.98 27.5 82.11 17 92.61 17 92.61 27.56 81.98 27.5"/><polygon class="cls-1" points="97.44 13.32 97.57 23.7 92.61 27.56 92.61 17 97.44 13.32"/><polygon class="cls-1" points="31.55 22.47 21.05 22.47 25.88 18.8 36.38 18.8 31.55 22.47"/><polygon class="cls-1" points="20.99 32.97 21.05 22.47 31.55 22.47 31.55 32.97 20.99 32.97"/><polygon class="cls-1" points="36.38 18.8 36.51 29.11 31.55 32.97 31.55 22.47 36.38 18.8"/><polygon class="cls-1" points="45.72 22.47 35.22 22.47 40.05 18.8 50.55 18.8 45.72 22.47"/><polygon class="cls-1" points="35.16 32.97 35.22 22.47 45.72 22.47 45.72 32.97 35.16 32.97"/><polygon class="cls-1" points="50.55 18.8 50.68 29.11 45.72 32.97 45.72 22.47 50.55 18.8"/><polygon class="cls-1" points="58.8 22.47 48.3 22.47 53.13 18.8 63.63 18.8 58.8 22.47"/><polygon class="cls-1" points="48.23 32.97 48.3 22.47 58.8 22.47 58.8 32.97 48.23 32.97"/><polygon class="cls-1" points="63.63 18.8 63.76 29.11 58.8 32.97 58.8 22.47 63.63 18.8"/><polygon class="cls-1" points="72.26 22.47 61.76 22.47 66.59 18.8 77.09 18.8 72.26 22.47"/><polygon class="cls-1" points="61.63 32.97 61.76 22.47 72.26 22.47 72.26 32.97 61.63 32.97"/><polygon class="cls-1" points="77.09 18.8 77.22 29.11 72.26 32.97 72.26 22.47 77.09 18.8"/><polygon class="cls-1" points="85.72 22.47 75.22 22.47 79.99 18.8 90.49 18.8 85.72 22.47"/><polygon class="cls-1" points="75.09 32.97 75.22 22.47 85.72 22.47 85.72 32.97 75.09 32.97"/><polygon class="cls-1" points="90.49 18.8 90.61 29.11 85.72 32.97 85.72 22.47 90.49 18.8"/><polygon class="cls-1" points="24.66 27.88 14.16 27.88 18.93 24.27 29.49 24.27 24.66 27.88"/><polygon class="cls-1" points="14.03 38.44 14.16 27.88 24.66 27.88 24.66 38.44 14.03 38.44"/><polygon class="cls-1" points="29.49 24.27 29.62 34.58 24.66 38.44 24.66 27.88 29.49 24.27"/><polygon class="cls-1" points="38.83 27.88 28.33 27.88 33.16 24.27 43.66 24.27 38.83 27.88"/><polygon class="cls-1" points="28.2 38.44 28.33 27.88 38.83 27.88 38.83 38.44 28.2 38.44"/><polygon class="cls-1" points="43.66 24.27 43.79 34.58 38.83 38.44 38.83 27.88 43.66 24.27"/><polygon class="cls-1" points="51.91 27.88 41.41 27.88 46.24 24.27 56.74 24.27 51.91 27.88"/><polygon class="cls-1" points="41.34 38.44 41.41 27.88 51.91 27.88 51.91 38.44 41.34 38.44"/><polygon class="cls-1" points="56.74 24.27 56.87 34.58 51.91 38.44 51.91 27.88 56.74 24.27"/><polygon class="cls-1" points="65.37 27.88 54.87 27.88 59.63 24.27 70.13 24.27 65.37 27.88"/><polygon class="cls-1" points="54.74 38.44 54.87 27.88 65.37 27.88 65.37 38.44 54.74 38.44"/><polygon class="cls-1" points="70.13 24.27 70.26 34.58 65.37 38.44 65.37 27.88 70.13 24.27"/><polygon class="cls-1" points="78.83 27.88 68.33 27.88 73.09 24.27 83.59 24.27 78.83 27.88"/><polygon class="cls-1" points="68.2 38.44 68.33 27.88 78.83 27.88 78.83 38.44 68.2 38.44"/><polygon class="cls-1" points="83.59 24.27 83.72 34.58 78.83 38.44 78.83 27.88 83.59 24.27"/><polygon class="cls-1" points="17.77 33.36 7.27 33.36 12.04 29.68 22.54 29.68 17.77 33.36"/><polygon class="cls-1" points="7.14 43.85 7.27 33.36 17.77 33.36 17.77 43.85 7.14 43.85"/><polygon class="cls-1" points="22.54 29.68 22.66 40.05 17.77 43.85 17.77 33.36 22.54 29.68"/><polygon class="cls-1" points="31.94 33.36 21.44 33.36 26.21 29.68 36.7 29.68 31.94 33.36"/><polygon class="cls-1" points="21.31 43.85 21.44 33.36 31.94 33.36 31.94 43.85 21.31 43.85"/><polygon class="cls-1" points="36.7 29.68 36.83 40.05 31.94 43.85 31.94 33.36 36.7 29.68"/><polygon class="cls-1" points="45.01 33.36 34.52 33.36 39.28 29.68 49.84 29.68 45.01 33.36"/><polygon class="cls-1" points="34.39 43.85 34.52 33.36 45.01 33.36 45.01 43.85 34.39 43.85"/><polygon class="cls-1" points="49.84 29.68 49.97 40.05 45.01 43.85 45.01 33.36 49.84 29.68"/><polygon class="cls-1" points="58.48 33.36 47.98 33.36 52.74 29.68 63.24 29.68 58.48 33.36"/><polygon class="cls-1" points="47.85 43.85 47.98 33.36 58.48 33.36 58.48 43.85 47.85 43.85"/><polygon class="cls-1" points="63.24 29.68 63.37 40.05 58.48 43.85 58.48 33.36 63.24 29.68"/><polygon class="cls-1" points="71.94 33.36 61.37 33.36 66.2 29.68 76.7 29.68 71.94 33.36"/><polygon class="cls-1" points="61.31 43.85 61.37 33.36 71.94 33.36 71.87 43.85 61.31 43.85"/><polygon class="cls-1" points="76.7 29.68 76.83 40.05 71.87 43.85 71.94 33.36 76.7 29.68"/><polygon class="cls-1" points="10.88 38.83 0.38 38.83 5.14 35.16 15.64 35.16 10.88 38.83"/><polygon class="cls-1" points="0.25 49.33 0.38 38.83 10.88 38.83 10.88 49.33 0.25 49.33"/><polygon class="cls-1" points="15.64 35.16 15.77 45.46 10.88 49.33 10.88 38.83 15.64 35.16"/><polygon class="cls-1" points="25.05 38.83 14.55 38.83 19.32 35.16 29.81 35.16 25.05 38.83"/><polygon class="cls-1" points="14.42 49.33 14.55 38.83 25.05 38.83 25.05 49.33 14.42 49.33"/><polygon class="cls-1" points="29.81 35.16 29.94 45.46 25.05 49.33 25.05 38.83 29.81 35.16"/><polygon class="cls-1" points="38.12 38.83 27.62 38.83 32.39 35.16 42.89 35.16 38.12 38.83"/><polygon class="cls-1" points="27.5 49.33 27.62 38.83 38.12 38.83 38.12 49.33 27.5 49.33"/><polygon class="cls-1" points="42.89 35.16 43.02 45.46 38.12 49.33 38.12 38.83 42.89 35.16"/><polygon class="cls-1" points="51.58 38.83 41.02 38.83 45.85 35.16 56.35 35.16 51.58 38.83"/><polygon class="cls-1" points="40.96 49.33 41.02 38.83 51.58 38.83 51.52 49.33 40.96 49.33"/><polygon class="cls-1" points="56.35 35.16 56.48 45.46 51.52 49.33 51.58 38.83 56.35 35.16"/><polygon class="cls-1" points="64.98 38.83 54.48 38.83 59.31 35.16 69.81 35.16 64.98 38.83"/><polygon class="cls-1" points="54.42 49.33 54.48 38.83 64.98 38.83 64.98 49.33 54.42 49.33"/><polygon class="cls-1" points="69.81 35.16 69.94 45.46 64.98 49.33 64.98 38.83 69.81 35.16"/><polygon class="cls-1" points="38.51 3.92 27.95 3.92 32.78 0.25 43.27 0.25 38.51 3.92"/><polygon class="cls-1" points="27.88 14.42 27.95 3.92 38.51 3.92 38.44 14.42 27.88 14.42"/><polygon class="cls-1" points="43.27 0.25 43.4 10.62 38.44 14.42 38.51 3.92 43.27 0.25"/><polygon class="cls-1" points="52.61 3.92 42.12 3.92 46.95 0.25 57.44 0.25 52.61 3.92"/><polygon class="cls-1" points="42.05 14.42 42.12 3.92 52.61 3.92 52.61 14.42 42.05 14.42"/><polygon class="cls-1" points="57.44 0.25 57.57 10.62 52.61 14.42 52.61 3.92 57.44 0.25"/><polygon class="cls-1" points="65.75 3.92 55.25 3.92 60.02 0.25 70.52 0.25 65.75 3.92"/><polygon class="cls-1" points="55.13 14.42 55.25 3.92 65.75 3.92 65.69 14.42 55.13 14.42"/><polygon class="cls-1" points="70.52 0.25 70.65 10.62 65.69 14.42 65.75 3.92 70.52 0.25"/><polygon class="cls-1" points="79.15 3.92 68.65 3.92 73.48 0.25 83.98 0.25 79.15 3.92"/><polygon class="cls-1" points="68.59 14.42 68.65 3.92 79.15 3.92 79.15 14.42 68.59 14.42"/><polygon class="cls-1" points="83.98 0.25 84.11 10.62 79.15 14.42 79.15 3.92 83.98 0.25"/><polygon class="cls-1" points="92.61 3.92 82.11 3.92 86.88 0.25 97.44 0.25 92.61 3.92"/><polygon class="cls-1" points="81.98 14.42 82.11 3.92 92.61 3.92 92.61 14.42 81.98 14.42"/><polygon class="cls-1" points="97.44 0.25 97.57 10.62 92.61 14.42 92.61 3.92 97.44 0.25"/><polygon class="cls-1" points="31.55 9.4 21.05 9.4 25.88 5.72 36.38 5.72 31.55 9.4"/><polygon class="cls-1" points="20.99 19.89 21.05 9.4 31.55 9.4 31.55 19.89 20.99 19.89"/><polygon class="cls-1" points="36.38 5.72 36.51 16.03 31.55 19.89 31.55 9.4 36.38 5.72"/><polygon class="cls-1" points="45.72 9.4 35.22 9.4 40.05 5.72 50.55 5.72 45.72 9.4"/><polygon class="cls-1" points="35.16 19.89 35.22 9.4 45.72 9.4 45.72 19.89 35.16 19.89"/><polygon class="cls-1" points="50.55 5.72 50.68 16.03 45.72 19.89 45.72 9.4 50.55 5.72"/><polygon class="cls-1" points="58.8 9.4 48.3 9.4 53.13 5.72 63.63 5.72 58.8 9.4"/><polygon class="cls-1" points="48.23 19.89 48.3 9.4 58.8 9.4 58.8 19.89 48.23 19.89"/><polygon class="cls-1" points="63.63 5.72 63.76 16.03 58.8 19.89 58.8 9.4 63.63 5.72"/><polygon class="cls-1" points="72.26 9.4 61.76 9.4 66.59 5.72 77.09 5.72 72.26 9.4"/><polygon class="cls-1" points="61.63 19.89 61.76 9.4 72.26 9.4 72.26 19.89 61.63 19.89"/><polygon class="cls-1" points="77.09 5.72 77.22 16.03 72.26 19.89 72.26 9.4 77.09 5.72"/><polygon class="cls-1" points="85.72 9.4 75.22 9.4 79.99 5.72 90.49 5.72 85.72 9.4"/><polygon class="cls-1" points="75.09 19.89 75.22 9.4 85.72 9.4 85.72 19.89 75.09 19.89"/><polygon class="cls-1" points="90.49 5.72 90.61 16.03 85.72 19.89 85.72 9.4 90.49 5.72"/><polygon class="cls-1" points="24.66 14.81 14.16 14.81 18.93 11.2 29.49 11.2 24.66 14.81"/><polygon class="cls-1" points="14.03 25.3 14.16 14.81 24.66 14.81 24.66 25.37 14.03 25.3"/><polygon class="cls-1" points="29.49 11.2 29.62 21.5 24.66 25.37 24.66 14.81 29.49 11.2"/><polygon class="cls-1" points="38.83 14.81 28.33 14.81 33.16 11.2 43.66 11.2 38.83 14.81"/><polygon class="cls-1" points="28.2 25.3 28.33 14.81 38.83 14.81 38.83 25.37 28.2 25.3"/><polygon class="cls-1" points="43.66 11.2 43.79 21.5 38.83 25.37 38.83 14.81 43.66 11.2"/><polygon class="cls-1" points="51.91 14.81 41.41 14.81 46.24 11.2 56.74 11.2 51.91 14.81"/><polygon class="cls-1" points="41.34 25.3 41.41 14.81 51.91 14.81 51.91 25.37 41.34 25.3"/><polygon class="cls-1" points="56.74 11.2 56.87 21.5 51.91 25.37 51.91 14.81 56.74 11.2"/><polygon class="cls-1" points="65.37 14.81 54.87 14.81 59.63 11.2 70.13 11.2 65.37 14.81"/><polygon class="cls-1" points="54.74 25.3 54.87 14.81 65.37 14.81 65.37 25.37 54.74 25.3"/><polygon class="cls-1" points="70.13 11.2 70.26 21.5 65.37 25.37 65.37 14.81 70.13 11.2"/><polygon class="cls-1" points="78.83 14.81 68.33 14.81 73.09 11.2 83.59 11.2 78.83 14.81"/><polygon class="cls-1" points="68.2 25.3 68.33 14.81 78.83 14.81 78.83 25.37 68.2 25.3"/><polygon class="cls-1" points="83.59 11.2 83.72 21.5 78.83 25.37 78.83 14.81 83.59 11.2"/><polygon class="cls-1" points="17.77 20.28 7.27 20.28 12.04 16.61 22.54 16.61 17.77 20.28"/><polygon class="cls-1" points="7.14 30.78 7.27 20.28 17.77 20.28 17.77 30.78 7.14 30.78"/><polygon class="cls-1" points="22.54 16.61 22.66 26.98 17.77 30.78 17.77 20.28 22.54 16.61"/><polygon class="cls-1" points="31.94 20.28 21.44 20.28 26.21 16.61 36.7 16.61 31.94 20.28"/><polygon class="cls-1" points="21.31 30.78 21.44 20.28 31.94 20.28 31.94 30.78 21.31 30.78"/><polygon class="cls-1" points="36.7 16.61 36.83 26.98 31.94 30.78 31.94 20.28 36.7 16.61"/><polygon class="cls-1" points="45.01 20.28 34.52 20.28 39.28 16.61 49.84 16.61 45.01 20.28"/><polygon class="cls-1" points="34.39 30.78 34.52 20.28 45.01 20.28 45.01 30.78 34.39 30.78"/><polygon class="cls-1" points="49.84 16.61 49.97 26.98 45.01 30.78 45.01 20.28 49.84 16.61"/><polygon class="cls-1" points="58.48 20.28 47.98 20.28 52.74 16.61 63.24 16.61 58.48 20.28"/><polygon class="cls-1" points="47.85 30.78 47.98 20.28 58.48 20.28 58.48 30.78 47.85 30.78"/><polygon class="cls-1" points="63.24 16.61 63.37 26.98 58.48 30.78 58.48 20.28 63.24 16.61"/><polygon class="cls-1" points="71.94 20.28 61.37 20.28 66.2 16.61 76.7 16.61 71.94 20.28"/><polygon class="cls-1" points="61.31 30.78 61.37 20.28 71.94 20.28 71.87 30.78 61.31 30.78"/><polygon class="cls-1" points="76.7 16.61 76.83 26.98 71.87 30.78 71.94 20.28 76.7 16.61"/><polygon class="cls-1" points="10.88 25.69 0.38 25.69 5.14 22.08 15.64 22.08 10.88 25.69"/><polygon class="cls-1" points="0.25 36.25 0.38 25.69 10.88 25.69 10.88 36.25 0.25 36.25"/><polygon class="cls-1" points="15.64 22.08 15.77 32.39 10.88 36.25 10.88 25.69 15.64 22.08"/><polygon class="cls-1" points="25.05 25.69 14.55 25.69 19.32 22.08 29.81 22.08 25.05 25.69"/><polygon class="cls-1" points="14.42 36.25 14.55 25.69 25.05 25.69 25.05 36.25 14.42 36.25"/><polygon class="cls-1" points="29.81 22.08 29.94 32.39 25.05 36.25 25.05 25.69 29.81 22.08"/><polygon class="cls-1" points="38.12 25.69 27.62 25.69 32.39 22.08 42.89 22.08 38.12 25.69"/><polygon class="cls-1" points="27.5 36.25 27.62 25.69 38.12 25.69 38.12 36.25 27.5 36.25"/><polygon class="cls-1" points="42.89 22.08 43.02 32.39 38.12 36.25 38.12 25.69 42.89 22.08"/><polygon class="cls-1" points="51.58 25.69 41.02 25.69 45.85 22.08 56.35 22.08 51.58 25.69"/><polygon class="cls-1" points="40.96 36.25 41.02 25.69 51.58 25.69 51.52 36.25 40.96 36.25"/><polygon class="cls-1" points="56.35 22.08 56.48 32.39 51.52 36.25 51.58 25.69 56.35 22.08"/><polygon class="cls-1" points="64.98 25.69 54.48 25.69 59.31 22.08 69.81 22.08 64.98 25.69"/><polygon class="cls-1" points="54.42 36.25 54.48 25.69 64.98 25.69 64.98 36.25 54.42 36.25"/><polygon class="cls-1" points="69.81 22.08 69.94 32.39 64.98 36.25 64.98 25.69 69.81 22.08"/></svg>