<svg id="Layer_2" data-name="Layer 2" xmlns="http://www.w3.org/2000/svg" viewBox="0 0 98.46 89.13"><defs><style>.cls-1{fill:#c9c9c9;stroke:#231f20;stroke-linecap:round;stroke-linejoin:round;stroke-width:0.5px;}</style></defs><title>atoms-groups</title><path class="cls-1" d="M71.37,29.29,38.91,54.73H1.16l32.4-25.44S71.82,28.78,71.37,29.29Z" transform="translate(-0.79 -2.57)"/><polygon class="cls-1" points="38.12 88.88 38.12 52.16 0.38 52.16 0.25 88.81 38.12 88.88"/><polygon class="cls-1" points="70.65 63.18 70.52 26.72 38.12 52.16 38.12 88.88 70.65 63.18"/><polygon class="cls-1" points="98.09 26.4 79.47 40.96 55.51 40.96 74.13 26.4 98.09 26.4"/><polygon class="cls-1" points="79.47 77.6 79.47 40.96 55.51 40.96 55.45 77.6 79.47 77.6"/><polygon class="cls-1" points="98.09 26.4 98.22 62.85 79.47 77.6 79.47 40.96 98.09 26.4"/><polygon id="Shape" class="cls-1" points="79.28 14.81 52.42 14.81 38.57 25.69 0.83 25.69 33.23 0.25 97.89 0.25 79.28 14.81"/><rect id="Rectangle-path" class="cls-1" x="52.42" y="14.81" width="26.86" height="23.64"/><polygon id="Shape-2" data-name="Shape" class="cls-1" points="38.57 49.26 0.77 49.26 0.83 25.69 38.57 25.69 38.57 49.26"/><polygon id="Shape-3" data-name="Shape" class="cls-1" points="52.42 38.38 52.42 14.81 38.57 25.69 38.57 49.26 52.42 38.38"/><polygon id="Shape-4" data-name="Shape" class="cls-1" points="97.89 0.25 98.02 23.63 79.28 38.38 79.28 14.81 97.89 0.25"/><polygon class="cls-1" points="76.83 55.96 65.11 65.04 41.15 65.04 52.87 55.96 76.83 55.96"/><polygon class="cls-1" points="76.96 79.34 76.83 55.96 65.11 65.04 65.11 88.68 76.96 79.34"/><polygon class="cls-1" points="41.09 88.62 41.15 65.04 65.11 65.04 65.11 88.68 41.09 88.62"/><polygon class="cls-1" points="77.22 15.9 65.5 25.05 41.53 25.05 53.26 15.9 77.22 15.9"/><polygon class="cls-1" points="65.5 61.7 65.5 25.05 41.53 25.05 41.41 61.7 65.5 61.7"/><polygon class="cls-1" points="77.35 52.42 77.22 15.9 65.5 25.05 65.5 61.7 77.35 52.42"/></svg>