<svg id="Layer_1" data-name="Layer 1" xmlns="http://www.w3.org/2000/svg" viewBox="0 0 95.18 90.35"><defs><style>.cls-1{fill:#c9c9c9;stroke:#231f20;stroke-linecap:round;stroke-linejoin:round;stroke-width:0.5px;}</style></defs><title>atoms-spatial</title><polygon class="cls-1" points="94.93 56.53 65 79.31 0.38 79.31 30.38 56.53 94.93 56.53"/><polygon class="cls-1" points="64.94 90.1 65 79.31 0.38 79.31 0.25 90.1 64.94 90.1"/><polygon class="cls-1" points="94.93 66.99 94.93 56.46 65 79.31 64.94 90.1 94.93 66.99"/><polygon class="cls-1" points="94.93 42.49 65 65.27 0.38 65.27 30.38 42.49 94.93 42.49"/><polygon class="cls-1" points="64.94 76.06 65 65.27 0.38 65.27 0.25 76.06 64.94 76.06"/><polygon class="cls-1" points="94.93 52.95 94.93 42.43 65 65.27 64.94 76.06 94.93 52.95"/><polygon class="cls-1" points="94.93 28.39 65 51.17 0.38 51.17 30.38 28.39 94.93 28.39"/><polygon class="cls-1" points="64.94 62.02 65 51.17 0.38 51.17 0.25 62.02 64.94 62.02"/><polygon class="cls-1" points="94.93 38.92 94.93 28.39 65 51.17 64.94 62.02 94.93 38.92"/><polygon class="cls-1" points="94.93 14.35 65 37.13 0.38 37.13 30.38 14.35 94.93 14.35"/><polygon class="cls-1" points="64.94 47.99 65 37.13 0.38 37.13 0.25 47.99 64.94 47.99"/><polygon class="cls-1" points="94.93 24.88 94.93 14.29 65 37.13 64.94 47.99 94.93 24.88"/><polygon class="cls-1" points="94.93 0.32 65 23.09 0.38 23.09 30.38 0.32 94.93 0.32"/><polygon class="cls-1" points="64.94 33.95 65 23.09 0.38 23.09 0.25 33.88 64.94 33.95"/><polygon class="cls-1" points="94.93 10.84 94.93 0.25 65 23.09 64.94 33.95 94.93 10.84"/></svg>