
<svg width="899px" height="261px" viewBox="0 0 899 261" version="1.1" xmlns="http://www.w3.org/2000/svg" xmlns:xlink="http://www.w3.org/1999/xlink">
    <!-- Generator: Sketch 47.1 (45422) - http://www.bohemiancoding.com/sketch -->
    <desc>Created with Sketch.</desc>
    <defs></defs>
    <g id="Page-3" stroke="none" stroke-width="1" fill="none" fill-rule="evenodd">
        <polygon id="Fill-1" fill="#FFFFFF" points="76 97 151 97 151 129 76 129"></polygon>
        <polygon id="Fill-3" fill="#FFFFFF" points="226 97 301 97 301 129 226 129"></polygon>
        <polygon id="Fill-4" fill="#FFFFFF" points="76 33 151 33 151 65 76 65"></polygon>
        <polygon id="Fill-5" fill="#FFFFFF" points="1 97 76 97 76 129 1 129"></polygon>
        <text id="Channel" font-family="HelveticaNeue-Italic, Helvetica Neue" font-size="12" font-style="italic" font-weight="normal" fill="#B9141F">
            <tspan x="22.484" y="113.792023">Channel</tspan>
        </text>
        <polygon id="Fill-6" fill="#FFFFFF" points="226 1 301 1 301 33 226 33"></polygon>
        <text id="Output" font-family="HelveticaNeue-Italic, Helvetica Neue" font-size="12" font-style="italic" font-weight="normal" fill="#F5871F">
            <tspan x="245.436" y="17.792023">Output</tspan>
        </text>
        <polygon id="Fill-7" fill="#FFFFFF" points="76 129 151 129 151 161 76 161"></polygon>
        <polygon id="Fill-8" fill="#FFFFFF" points="76 65 151 65 151 97 76 97"></polygon>
        <polygon id="Fill-9" fill="#FFFFFF" points="226 129 301 129 301 161 226 161"></polygon>
        <polygon id="Fill-10" fill="#FFFFFF" points="151 129 226 129 226 161 151 161"></polygon>
        <polygon id="Fill-11" fill="#FFFFFF" points="151 33 226 33 226 65 151 65"></polygon>
        <polygon id="Fill-12" fill="#FFFFFF" points="151 97 226 97 226 129 151 129"></polygon>
        <polygon id="Fill-13" fill="#FFFFFF" points="151 65 226 65 226 97 151 97"></polygon>
        <polygon id="Fill-14" fill="#FFFFFF" points="1 33 76 33 76 65 1 65"></polygon>
        <text id="Group-15" font-family="HelveticaNeue-Italic, Helvetica Neue" font-size="12" font-style="italic" font-weight="normal" fill="#B9141F">
            <tspan x="32.936" y="49.792023">Group</tspan>
        </text>
        <polygon id="Fill-16" fill="#FFFFFF" points="1 65 76 65 76 97 1 97"></polygon>
        <text id="Spatial" font-family="HelveticaNeue-Italic, Helvetica Neue" font-size="12" font-style="italic" font-weight="normal" fill="#B9141F">
            <tspan x="30.044" y="81.792023">Spatial</tspan>
        </text>
        <polygon id="Fill-17" fill="#FFFFFF" points="226 65 301 65 301 97 226 97"></polygon>
        <polygon id="Fill-18" fill="#FFFFFF" points="76 1 151 1 151 33 76 33"></polygon>
        <text id="Input" font-family="HelveticaNeue-Italic, Helvetica Neue" font-size="12" font-style="italic" font-weight="normal" fill="#F5871F">
            <tspan x="100.326" y="17.792023">Input</tspan>
        </text>
        <polygon id="Fill-19" fill="#FFFFFF" points="1 1 76 1 76 33 1 33"></polygon>
        <polygon id="Fill-20" fill="#FFFFFF" points="226 33 301 33 301 65 226 65"></polygon>
        <polygon id="Fill-21" fill="#FFFFFF" points="1 129 76 129 76 161 1 161"></polygon>
        <text id="Neuron" font-family="HelveticaNeue-Italic, Helvetica Neue" font-size="12" font-style="italic" font-weight="normal" fill="#B9141F">
            <tspan x="27.38" y="145.792023">Neuron</tspan>
        </text>
        <polygon id="Fill-22" fill="#FFFFFF" points="151 1 226 1 226 33 151 33"></polygon>
        <text id="Hidden" font-family="HelveticaNeue-Italic, Helvetica Neue" font-size="12" font-style="italic" font-weight="normal" fill="#F5871F">
            <tspan x="169.662" y="17.792023">Hidden</tspan>
        </text>
        <path d="M77.5,1 L77.5,161" id="Stroke-23" stroke="#919191" stroke-width="0.5" stroke-linecap="round" stroke-linejoin="round"></path>
        <path d="M151.5,1 L151.5,161" id="Stroke-24" stroke="#919191" stroke-width="0.5" stroke-linecap="round" stroke-linejoin="round"></path>
        <path d="M226.5,1 L226.5,161" id="Stroke-25" stroke="#919191" stroke-width="0.5" stroke-linecap="round" stroke-linejoin="round"></path>
        <path d="M1.8,33.5 L301.8,33.5" id="Stroke-26" stroke="#919191" stroke-width="0.5" stroke-linecap="round" stroke-linejoin="round"></path>
        <path d="M1.2059,65.5 L301.2059,65.5" id="Stroke-27" stroke="#919191" stroke-width="0.5" stroke-linecap="round" stroke-linejoin="round"></path>
        <path d="M0.8091,96.5 L300.8091,96.5" id="Stroke-28" stroke="#919191" stroke-width="0.5" stroke-linecap="round" stroke-linejoin="round"></path>
        <path d="M1.4052,128.5 L301.4052,128.5" id="Stroke-29" stroke="#919191" stroke-width="0.5" stroke-linecap="round" stroke-linejoin="round"></path>
        <path d="M0.8091,160.5 L300.8091,160.5" id="Stroke-30" stroke="#919191" stroke-width="0.5" stroke-linecap="round" stroke-linejoin="round"></path>
        <path d="M301.5,1 L301.5,161" id="Stroke-31" stroke="#919191" stroke-width="0.5" stroke-linecap="round" stroke-linejoin="round"></path>
        <path d="M301.5,1 L301.5,161" id="Stroke-32" stroke="#919191" stroke-width="0.5" stroke-linecap="round" stroke-linejoin="round"></path>
        <path d="M195.6134,106.7186 C199.2062,110.3114 199.2062,116.1365 195.6134,119.7293 C192.0206,123.3222 186.1955,123.3222 182.6027,119.7293 C179.0098,116.1365 179.0098,110.3114 182.6027,106.7186 C186.1955,103.1257 192.0206,103.1257 195.6134,106.7186" id="Fill-43" fill="#4271AE"></path>
        <text id="F" font-family="HelveticaNeue, Helvetica Neue" font-size="12" font-weight="normal" fill="#FFFFFF">
            <tspan x="185.664" y="117.075982">F</tspan>
        </text>
        <text id="1.-Feature-Visualization-of-Channels" font-family="HelveticaNeue-Bold, Helvetica Neue" font-size="14" font-weight="bold" fill-opacity="0.8" fill="#000000">
            <tspan x="6.8" y="202.608932">1. Feature Visualization of Channels</tspan>
        </text>
        <text id="To-understand-a-classiﬁcation,-we-focus-on-the-" font-family="HelveticaNeue, Helvetica Neue" font-size="12" font-weight="normal" fill-opacity="0.8" fill="#000000">
            <tspan x="6.8" y="227.183101">To understand a classiﬁcation, we focus on the</tspan>
        </text>
        <text id="channels-of-the-" font-family="HelveticaNeue, Helvetica Neue" font-size="12" font-weight="normal" fill-opacity="0.8" fill="#000000">
            <tspan x="6.8" y="242.519104">channels of the </tspan>
        </text>
        <text id="mixed4d" font-family="Monaco" font-size="12" font-weight="normal" fill-opacity="0.8" fill="#000000">
            <tspan x="92.15596" y="242.499023">mixed4d</tspan>
        </text>
        <text id="-layer.-Feature-visualization-" font-family="HelveticaNeue, Helvetica Neue" font-size="12" font-weight="normal" fill-opacity="0.8" fill="#000000">
            <tspan x="142.564162" y="242.519104"> layer. Feature visualization</tspan>
        </text>
        <text id="makes-these-channels-meaningful." font-family="HelveticaNeue, Helvetica Neue" font-size="12" font-weight="normal" fill-opacity="0.8" fill="#000000">
            <tspan x="6.8" y="257.521061">makes these channels meaningful.</tspan>
        </text>
        <polygon id="Fill-44" fill="#FFFFFF" points="343 1 418 1 418 33 343 33"></polygon>
        <text id="Input" font-family="HelveticaNeue-Italic, Helvetica Neue" font-size="12" font-style="italic" font-weight="normal" fill="#F5871F">
            <tspan x="366.826" y="17.792023">Input</tspan>
        </text>
        <polygon id="Fill-45" fill="#FFFFFF" points="418 129 493 129 493 161 418 161"></polygon>
        <polygon id="Fill-46" fill="#FFFFFF" points="493 33 568 33 568 65 493 65"></polygon>
        <polygon id="Fill-47" fill="#FFFFFF" points="343 129 418 129 418 161 343 161"></polygon>
        <polygon id="Fill-48" fill="#FFFFFF" points="343 33 418 33 418 65 343 65"></polygon>
        <polygon id="Fill-49" fill="#FFFFFF" points="418 65 493 65 493 97 418 97"></polygon>
        <polygon id="Fill-50" fill="#FFFFFF" points="343 65 418 65 418 97 343 97"></polygon>
        <polygon id="Fill-51" fill="#FFFFFF" points="493 97 568 97 568 129 493 129"></polygon>
        <polygon id="Fill-52" fill="#FFFFFF" points="343 97 418 97 418 129 343 129"></polygon>
        <polygon id="Fill-53" fill="#FFFFFF" points="493 129 568 129 568 161 493 161"></polygon>
        <polygon id="Fill-54" fill="#FFFFFF" points="493 1 568 1 568 33 493 33"></polygon>
        <text id="Output" font-family="HelveticaNeue-Italic, Helvetica Neue" font-size="12" font-style="italic" font-weight="normal" fill="#F5871F">
            <tspan x="511.936" y="17.792023">Output</tspan>
        </text>
        <polygon id="Fill-55" fill="#FFFFFF" points="418 97 493 97 493 129 418 129"></polygon>
        <polygon id="Fill-56" fill="#FFFFFF" points="418 1 493 1 493 33 418 33"></polygon>
        <text id="Hidden" font-family="HelveticaNeue-Italic, Helvetica Neue" font-size="12" font-style="italic" font-weight="normal" fill="#F5871F">
            <tspan x="436.162" y="17.792023">Hidden</tspan>
        </text>
        <polygon id="Fill-57" fill="#FFFFFF" points="493 65 568 65 568 97 493 97"></polygon>
        <polygon id="Fill-58" fill="#FFFFFF" points="418 33 493 33 493 65 418 65"></polygon>
        <path d="M343.5,1 L343.5,161" id="Stroke-59" stroke="#919191" stroke-width="0.5" stroke-linecap="round" stroke-linejoin="round"></path>
        <path d="M417.5,1 L417.5,161" id="Stroke-60" stroke="#919191" stroke-width="0.5" stroke-linecap="round" stroke-linejoin="round"></path>
        <path d="M492.5,1 L492.5,161" id="Stroke-61" stroke="#919191" stroke-width="0.5" stroke-linecap="round" stroke-linejoin="round"></path>
        <path d="M344.5,32.4847 L568.3,32.8" id="Stroke-62" stroke="#919191" stroke-width="0.5" stroke-linecap="round" stroke-linejoin="round"></path>
        <path d="M343.9059,65.5 L567.7059,65.5" id="Stroke-63" stroke="#919191" stroke-width="0.5" stroke-linecap="round" stroke-linejoin="round"></path>
        <path d="M344.5,96.5 L567.3091,96.5" id="Stroke-64" stroke="#919191" stroke-width="0.5" stroke-linecap="round" stroke-linejoin="round"></path>
        <path d="M343.9059,128.5 L567.9052,128.5" id="Stroke-65" stroke="#919191" stroke-width="0.5" stroke-linecap="round" stroke-linejoin="round"></path>
        <path d="M344.5,160.5 L567.3091,160.5" id="Stroke-66" stroke="#919191" stroke-width="0.5" stroke-linecap="round" stroke-linejoin="round"></path>
        <path d="M567.5,1 L567.5,161" id="Stroke-67" stroke="#919191" stroke-width="0.5" stroke-linecap="round" stroke-linejoin="round"></path>
        <path d="M442.7054,106.7186 C446.2982,110.3114 446.2982,116.1365 442.7054,119.7293 C439.1126,123.3222 433.2875,123.3222 429.6946,119.7293 C426.1018,116.1365 426.1018,110.3114 429.6946,106.7186 C433.2875,103.1257 439.1126,103.1257 442.7054,106.7186" id="Fill-68" fill="#4271AE"></path>
        <text id="F" font-family="HelveticaNeue, Helvetica Neue" font-size="12" font-weight="normal" fill="#FFFFFF">
            <tspan x="432.756" y="117.075982">F</tspan>
        </text>
        <text id="2.-Filter-by-Output-Attribution" font-family="HelveticaNeue-Bold, Helvetica Neue" font-size="14" font-weight="bold" fill-opacity="0.8" fill="#000000">
            <tspan x="348" y="202.608932">2. Filter by Output Attribution</tspan>
        </text>
        <text id="Next,-we-ﬁlter-for-speciﬁc-classes-by-" font-family="HelveticaNeue, Helvetica Neue" font-size="12" font-weight="normal" fill-opacity="0.8" fill="#000000">
            <tspan x="348" y="227.184082">Next, we ﬁlter for speciﬁc classes by </tspan>
        </text>
        <text id="calculating-the-output-attribution." font-family="HelveticaNeue, Helvetica Neue" font-size="12" font-weight="normal" fill-opacity="0.8" fill="#000000">
            <tspan x="348" y="241.520081">calculating the output attribution.</tspan>
        </text>
        <path d="M537.0134,138.7249 C540.6062,142.3177 540.6062,148.1428 537.0134,151.7357 C533.4206,155.3285 527.5955,155.3285 524.0027,151.7357 C520.4098,148.1428 520.4098,142.3177 524.0027,138.7249 C527.5955,135.1321 533.4206,135.1321 537.0134,138.7249" id="Fill-69" fill="#768B29"></path>
        <text id="T" font-family="HelveticaNeue, Helvetica Neue" font-size="12" font-weight="normal" fill="#FFFFFF">
            <tspan x="527.064" y="149.082382">T</tspan>
        </text>
        <path d="M481.1405,106.7186 C484.7333,110.3114 484.7333,116.1365 481.1405,119.7293 C477.5477,123.3222 471.7225,123.3222 468.1297,119.7293 C464.5369,116.1365 464.5369,110.3114 468.1297,106.7186 C471.7225,103.1257 477.5477,103.1257 481.1405,106.7186" id="Fill-70" fill="#768B29"></path>
        <text id="T" font-family="HelveticaNeue, Helvetica Neue" font-size="12" font-weight="normal" fill="#FFFFFF">
            <tspan x="471.1911" y="117.075982">T</tspan>
        </text>
        <path d="M522.5231,140.6562 L492.1476,123.2558" id="Stroke-71" stroke="#768B29" stroke-width="2" stroke-linecap="round" stroke-linejoin="round"></path>
        <polygon id="Fill-72" fill="#768B29" points="485.4835 119.4384 490.716 125.7548 493.5791 120.7568"></polygon>
        <polygon id="Stroke-73" stroke="#768B29" stroke-width="2" points="485.4835 119.4384 490.716 125.7548 493.5791 120.7568"></polygon>
        <path d="M469.6223,120.9406 C464.8678,127.5575 457.484,136.0303 450.8471,136.0303 C447.4928,136.0303 444.8152,133.8662 442.7157,130.8712" id="Stroke-74" stroke="#768B29" stroke-width="2" stroke-linecap="round" stroke-linejoin="round"></path>
        <polygon id="Stroke-75" stroke="#768B29" stroke-width="2" points="439.5957 124.3832 438.9309 132.6921 446.5011 129.0518"></polygon>
        <text id="ﬁlter" font-family="HelveticaNeue-Italic, Helvetica Neue" font-size="12" font-style="italic" font-weight="normal" fill="#5F7C04">
            <tspan x="440.3976" y="145.871723">ﬁlter</tspan>
        </text>
        <polygon id="Fill-76" fill="#FFFFFF" points="613 1 688 1 688 33 613 33"></polygon>
        <text id="Input" font-family="HelveticaNeue-Italic, Helvetica Neue" font-size="12" font-style="italic" font-weight="normal" fill="#F5871F">
            <tspan x="636.826" y="17.792023">Input</tspan>
        </text>
        <polygon id="Fill-77" fill="#FFFFFF" points="688 129 763 129 763 161 688 161"></polygon>
        <polygon id="Fill-78" fill="#FFFFFF" points="763 33 838 33 838 65 763 65"></polygon>
        <polygon id="Fill-79" fill="#FFFFFF" points="613 129 688 129 688 161 613 161"></polygon>
        <polygon id="Fill-80" fill="#FFFFFF" points="613 33 688 33 688 65 613 65"></polygon>
        <polygon id="Fill-81" fill="#FFFFFF" points="688 65 763 65 763 97 688 97"></polygon>
        <polygon id="Fill-82" fill="#FFFFFF" points="613 65 688 65 688 97 613 97"></polygon>
        <polygon id="Fill-83" fill="#FFFFFF" points="763 97 838 97 838 129 763 129"></polygon>
        <polygon id="Fill-84" fill="#FFFFFF" points="613 97 688 97 688 129 613 129"></polygon>
        <polygon id="Fill-85" fill="#FFFFFF" points="763 129 838 129 838 161 763 161"></polygon>
        <polygon id="Fill-86" fill="#FFFFFF" points="763 1 838 1 838 33 763 33"></polygon>
        <text id="Output" font-family="HelveticaNeue-Italic, Helvetica Neue" font-size="12" font-style="italic" font-weight="normal" fill="#F5871F">
            <tspan x="781.936" y="17.792023">Output</tspan>
        </text>
        <polygon id="Fill-87" fill="#FFFFFF" points="688 97 763 97 763 129 688 129"></polygon>
        <polygon id="Fill-88" fill="#FFFFFF" points="688 1 763 1 763 33 688 33"></polygon>
        <text id="Hidden" font-family="HelveticaNeue-Italic, Helvetica Neue" font-size="12" font-style="italic" font-weight="normal" fill="#F5871F">
            <tspan x="706.162" y="17.792023">Hidden</tspan>
        </text>
        <polygon id="Fill-89" fill="#FFFFFF" points="763 65 838 65 838 97 763 97"></polygon>
        <polygon id="Fill-90" fill="#FFFFFF" points="688 33 763 33 763 65 688 65"></polygon>
        <path d="M613.5,1 L613.5,161" id="Stroke-91" stroke="#919191" stroke-width="0.5" stroke-linecap="round" stroke-linejoin="round"></path>
        <path d="M687.5,1 L687.5,161" id="Stroke-92" stroke="#919191" stroke-width="0.5" stroke-linecap="round" stroke-linejoin="round"></path>
        <path d="M762.5,1 L762.5,161" id="Stroke-93" stroke="#919191" stroke-width="0.5" stroke-linecap="round" stroke-linejoin="round"></path>
        <path d="M614.5,32.4847 L838.3,32.8" id="Stroke-94" stroke="#919191" stroke-width="0.5" stroke-linecap="round" stroke-linejoin="round"></path>
        <path d="M613.9059,65.5 L837.7059,65.5" id="Stroke-95" stroke="#919191" stroke-width="0.5" stroke-linecap="round" stroke-linejoin="round"></path>
        <path d="M614.5,96.5 L837.3091,96.5" id="Stroke-96" stroke="#919191" stroke-width="0.5" stroke-linecap="round" stroke-linejoin="round"></path>
        <path d="M613.9059,128.5 L837.9052,128.5" id="Stroke-97" stroke="#919191" stroke-width="0.5" stroke-linecap="round" stroke-linejoin="round"></path>
        <path d="M614.5,160.5 L837.3091,160.5" id="Stroke-98" stroke="#919191" stroke-width="0.5" stroke-linecap="round" stroke-linejoin="round"></path>
        <path d="M837.5,1 L837.5,161" id="Stroke-99" stroke="#919191" stroke-width="0.5" stroke-linecap="round" stroke-linejoin="round"></path>
        <path d="M712.7054,106.7186 C716.2982,110.3114 716.2982,116.1365 712.7054,119.7293 C709.1126,123.3222 703.2874,123.3222 699.6946,119.7293 C696.1018,116.1365 696.1018,110.3114 699.6946,106.7186 C703.2874,103.1257 709.1126,103.1257 712.7054,106.7186" id="Fill-100" fill="#4271AE"></path>
        <text id="F" font-family="HelveticaNeue, Helvetica Neue" font-size="12" font-weight="normal" fill="#FFFFFF">
            <tspan x="702.756" y="117.075982">F</tspan>
        </text>
        <path d="M807.0134,138.7249 C810.6062,142.3177 810.6062,148.1428 807.0134,151.7357 C803.4206,155.3285 797.5955,155.3285 794.0027,151.7357 C790.4098,148.1428 790.4098,142.3177 794.0027,138.7249 C797.5955,135.1321 803.4206,135.1321 807.0134,138.7249" id="Fill-101" fill="#768B29"></path>
        <text id="T" font-family="HelveticaNeue, Helvetica Neue" font-size="12" font-weight="normal" fill="#FFFFFF">
            <tspan x="797.064" y="149.082382">T</tspan>
        </text>
        <path d="M749.1054,106.7186 C752.6982,110.3114 752.6982,116.1365 749.1054,119.7293 C745.5126,123.3222 739.6874,123.3222 736.0946,119.7293 C732.5018,116.1365 732.5018,110.3114 736.0946,106.7186 C739.6874,103.1257 745.5126,103.1257 749.1054,106.7186" id="Fill-102" fill="#768B29"></path>
        <text id="T" font-family="HelveticaNeue, Helvetica Neue" font-size="12" font-weight="normal" fill="#FFFFFF">
            <tspan x="739.156" y="117.075982">T</tspan>
        </text>
        <path d="M792.454,140.7787 L759.4237,122.5225" id="Stroke-103" stroke="#768B29" stroke-width="2" stroke-linecap="round" stroke-linejoin="round"></path>
        <polygon id="Fill-104" fill="#768B29" points="753.5422 119.2718 758.2046 124.7281 760.6427 120.317"></polygon>
        <polygon id="Stroke-105" stroke="#768B29" stroke-width="2" points="753.5422 119.2718 758.2046 124.7281 760.6427 120.317"></polygon>
        <path d="M737.9641,121.1732 C733.6807,127.7543 727.0591,136.0303 720.8471,136.0303 C717.6469,136.0303 715.0224,133.834 712.9244,130.8045" id="Stroke-106" stroke="#768B29" stroke-width="2" stroke-linecap="round" stroke-linejoin="round"></path>
        <polygon id="Stroke-107" stroke="#768B29" stroke-width="2" points="709.7718 124.3334 709.1494 132.6456 716.7009 128.9667"></polygon>
        <text id="ﬁlter" font-family="HelveticaNeue-Italic, Helvetica Neue" font-size="12" font-style="italic" font-weight="normal" fill="#5F7C04">
            <tspan x="710.3976" y="145.871723">ﬁlter</tspan>
        </text>
        <path d="M722.6344,74.4946 C726.2273,78.0874 726.2273,83.9126 722.6344,87.5054 C719.0416,91.0982 713.2165,91.0982 709.6237,87.5054 C706.0308,83.9126 706.0308,78.0874 709.6237,74.4946 C713.2165,70.9018 719.0416,70.9018 722.6344,74.4946" id="Fill-108" fill="#768B29"></path>
        <text id="C" font-family="HelveticaNeue, Helvetica Neue" font-size="12" font-weight="normal" fill="#FFFFFF">
            <tspan x="711.797" y="84.8520816">C</tspan>
        </text>
        <path d="M708.1054,74.4946 C711.6982,78.0874 711.6982,83.9126 708.1054,87.5054 C704.5126,91.0982 698.6875,91.0982 695.0946,87.5054 C691.5018,83.9126 691.5018,78.0874 695.0946,74.4946 C698.6875,70.9018 704.5126,70.9018 708.1054,74.4946" id="Fill-109" fill="#4271AE"></path>
        <text id="I" font-family="HelveticaNeue, Helvetica Neue" font-size="12" font-weight="normal" fill="#FFFFFF">
            <tspan x="700.046" y="83.8520816">I</tspan>
        </text>
        <path d="M756.3054,74.4946 C759.8982,78.0874 759.8982,83.9126 756.3054,87.5054 C752.7126,91.0982 746.8875,91.0982 743.2946,87.5054 C739.7018,83.9126 739.7018,78.0874 743.2946,74.4946 C746.8875,70.9018 752.7126,70.9018 756.3054,74.4946" id="Fill-110" fill="#768B29"></path>
        <text id="T" font-family="HelveticaNeue, Helvetica Neue" font-size="12" font-weight="normal" fill="#FFFFFF">
            <tspan x="746.356" y="84.8520816">T</tspan>
        </text>
        <path d="M697.5737,110.0197 C690.5147,107.0177 681.57,102.1835 680.7902,96.7208 C680.3998,93.9861 682.1105,91.4792 684.6987,89.3089" id="Stroke-111" stroke="#768B29" stroke-width="2" stroke-linecap="round" stroke-linejoin="round"></path>
        <polygon id="Stroke-112" stroke="#768B29" stroke-width="2" points="690.8703 85.5957 682.5356 85.7088 686.8661 92.9065"></polygon>
        <text id="3.-Drill-Down-on-Hover" font-family="HelveticaNeue-Bold, Helvetica Neue" font-size="14" font-weight="bold" fill-opacity="0.8" fill="#000000">
            <tspan x="618" y="202.608932">3. Drill Down on Hover</tspan>
        </text>
        <text id="Hovering-over-channels,-we-get-a-heatmap-of-spatial-" font-family="HelveticaNeue, Helvetica Neue" font-size="12" font-weight="normal" fill-opacity="0.8" fill="#000000">
            <tspan x="618" y="227.516081">Hovering over channels, we get a heatmap of spatial </tspan>
        </text>
        <text id="activations;-hovering-over-spatial-locations-gives-us-" font-family="HelveticaNeue, Helvetica Neue" font-size="12" font-weight="normal" fill-opacity="0.8" fill="#000000">
            <tspan x="618" y="241.852082">activations; hovering over spatial locations gives us </tspan>
        </text>
        <text id="position-speciﬁc-attribution-for-the-channels." font-family="HelveticaNeue, Helvetica Neue" font-size="12" font-weight="normal" fill-opacity="0.8" fill="#000000">
            <tspan x="618" y="256.188081">position-speciﬁc attribution for the channels.</tspan>
        </text>
        <polygon id="Fill-113" fill="#FFFFFF" points="645 85 679 85 679 110 645 110"></polygon>
        <text id="ﬁlter" font-family="HelveticaNeue-Italic, Helvetica Neue" font-size="12" font-style="italic" font-weight="normal" fill="#5F7C04">
            <tspan x="650.444" y="98.055623">ﬁlter</tspan>
        </text>
        <path d="M747.7936,89.9797 L746.7914,94.4653" id="Stroke-114" stroke="#768B29" stroke-width="2" stroke-linecap="round" stroke-linejoin="round"></path>
        <polygon id="Fill-115" fill="#768B29" points="745.326 101.0236 749.2507 95.0148 744.332 93.9158"></polygon>
        <polygon id="Stroke-116" stroke="#768B29" stroke-width="2" points="745.326 101.0236 749.2507 95.0148 744.332 93.9158"></polygon>
        <path d="M466.5522,106.7186 C470.145,110.3114 470.145,116.1365 466.5522,119.7293 C462.9594,123.3222 457.1343,123.3222 453.5414,119.7293 C449.9486,116.1365 449.9486,110.3114 453.5414,106.7186 C457.1343,103.1257 462.9594,103.1257 466.5522,106.7186" id="Fill-117" fill="#4271AE"></path>
        <text id="I" font-family="HelveticaNeue, Helvetica Neue" font-size="12" font-weight="normal" fill="#FFFFFF">
            <tspan x="458.4928" y="116.075982">I</tspan>
        </text>
        <path d="M736.2589,106.9362 C739.8518,110.529 739.8518,116.3541 736.2589,119.9469 C732.6661,123.5398 726.841,123.5398 723.2482,119.9469 C719.6553,116.3541 719.6553,110.529 723.2482,106.9362 C726.841,103.3433 732.6661,103.3433 736.2589,106.9362" id="Fill-118" fill="#4271AE"></path>
        <text id="I" font-family="HelveticaNeue, Helvetica Neue" font-size="12" font-weight="normal" fill="#FFFFFF">
            <tspan x="728.1996" y="116.293582">I</tspan>
        </text>
    </g>
</svg>